<!DOCTYPE svg PUBLIC "-//W3C//DTD SVG 1.1//EN" "http://www.w3.org/Graphics/SVG/1.1/DTD/svg11.dtd">
<!-- Uploaded to: SVG Repo, www.svgrepo.com, Transformed by: SVG Repo Mixer Tools -->
<svg fill="#d1ae00" width="800px" height="800px" viewBox="-192 -192 2304.00 2304.00" xmlns="http://www.w3.org/2000/svg" stroke="#d1ae00" transform="matrix(1, 0, 0, 1, 0, 0)">
<g id="SVGRepo_bgCarrier" stroke-width="0" transform="translate(0,0), scale(1)"/>
<g id="SVGRepo_tracerCarrier" stroke-linecap="round" stroke-linejoin="round" stroke="#000000" stroke-width="3.84"/>
<g id="SVGRepo_iconCarrier"> <g fill-rule="evenodd"> <path d="M1185.471 0v564.706h564.705V1920H169V0h1016.471Zm-225.77 1355.294H507.823v113.054h451.878v-113.054Zm338.711-225.881H507.823v112.94h790.589v-112.94Zm-112.941-225.884H507.823v112.941h677.648V903.529Zm225.882-225.882h-903.53v112.941h903.53V677.647ZM959.701 451.878H507.823v112.941h451.878V451.878Z"/> <path d="M1667.673 345.623c30.38 30.268 51.84 66.635 65.619 106.164h-434.937V16.851c39.53 13.779 75.897 35.35 106.278 65.619l263.04 263.153Z"/> </g> </g>
</svg>